{
  "accessors": [
    {
      "bufferView": 2,
      "componentType": 5126,
      "count": 409,
      "max": [
        0.28022852540016174,
        0.1502528190612793,
        0.3890222907066345
      ],
      "min": [
        -0.28022852540016174,
        -0.15253469347953796,
        -0.1318126916885376
      ],
      "type": "VEC3"
    },
    {
      "bufferView": 2,
      "byteOffset": 4908,
      "componentType": 5126,
      "count": 409,
      "max": [
        1.0,
        1.0,
        1.0
      ],
      "min": [
        -1.0,
        -1.0,
        -1.0
      ],
      "type": "VEC3"
    },
    {
      "bufferView": 1,
      "componentType": 5126,
      "count": 409,
      "max": [
        0.9978033304214478,
        0.9442504048347473
      ],
      "min": [
        0.0,
        0.0
      ],
      "type": "VEC2"
    },
    {
      "bufferView": 0,
      "componentType": 5125,
      "count": 999,
      "type": "SCALAR"
    },
    {
      "bufferView": 2,
      "byteOffset": 9816,
      "componentType": 5126,
      "count": 184,
      "max": [
        0.29967615008354187,
        0.16306988894939423,
        0.435127317905426
      ],
      "min": [
        -0.29967615008354187,
        -0.16328974068164825,
        -0.2818238139152527
      ],
      "type": "VEC3"
    },
    {
      "bufferView": 2,
      "byteOffset": 12024,
      "componentType": 5126,
      "count": 184,
      "max": [
        1.0,
        1.0,
        0.9704176783561707
      ],
      "min": [
        -1.0,
        -1.0,
        -1.0
      ],
      "type": "VEC3"
    },
    {
      "bufferView": 1,
      "byteOffset": 3272,
      "componentType": 5126,
      "count": 184,
      "max": [
        0.9999999403953552,
        0.9728075265884399
      ],
      "min": [
        0.0,
        0.0
      ],
      "type": "VEC2"
    },
    {
      "bufferView": 0,
      "byteOffset": 3996,
      "componentType": 5125,
      "count": 510,
      "type": "SCALAR"
    },
    {
      "bufferView": 2,
      "byteOffset": 14232,
      "componentType": 5126,
      "count": 472,
      "max": [
        0.19584834575653076,
        0.19584833085536957,
        0.24854733049869537
      ],
      "min": [
        -0.19584831595420837,
        -0.19584833085536957,
        -0.20566211640834808
      ],
      "type": "VEC3"
    },
    {
      "bufferView": 2,
      "byteOffset": 19896,
      "componentType": 5126,
      "count": 472,
      "max": [
        1.0,
        1.0,
        1.0
      ],
      "min": [
        -1.0,
        -1.0,
        -1.0
      ],
      "type": "VEC3"
    },
    {
      "bufferView": 1,
      "byteOffset": 4744,
      "componentType": 5126,
      "count": 472,
      "max": [
        0.9866772294044495,
        0.9760907888412476
      ],
      "min": [
        0.017131859436631203,
        0.013383535668253899
      ],
      "type": "VEC2"
    },
    {
      "bufferView": 0,
      "byteOffset": 6036,
      "componentType": 5125,
      "count": 1824,
      "type": "SCALAR"
    },
    {
      "bufferView": 2,
      "byteOffset": 25560,
      "componentType": 5126,
      "count": 283,
      "max": [
        0.13914576172828674,
        0.1687968671321869,
        0.09011417627334595
      ],
      "min": [
        -0.1578950583934784,
        -0.08639790117740631,
        -0.294633686542511
      ],
      "type": "VEC3"
    },
    {
      "bufferView": 2,
      "byteOffset": 28956,
      "componentType": 5126,
      "count": 283,
      "max": [
        0.9885898232460022,
        0.9988436698913574,
        0.9629795551300049
      ],
      "min": [
        -0.9885579943656921,
        -0.9992983937263489,
        -0.9741785526275635
      ],
      "type": "VEC3"
    },
    {
      "bufferView": 1,
      "byteOffset": 8520,
      "componentType": 5126,
      "count": 283,
      "max": [
        0.985605001449585,
        0.9931668639183044
      ],
      "min": [
        0.11483418941497803,
        0.0
      ],
      "type": "VEC2"
    },
    {
      "bufferView": 0,
      "byteOffset": 13332,
      "componentType": 5125,
      "count": 912,
      "type": "SCALAR"
    },
    {
      "bufferView": 2,
      "byteOffset": 32352,
      "componentType": 5126,
      "count": 269,
      "max": [
        0.08840546011924744,
        0.09606736153364182,
        0.2172437310218811
      ],
      "min": [
        -0.08050218224525452,
        -0.0702064037322998,
        -0.12192286550998688
      ],
      "type": "VEC3"
    },
    {
      "bufferView": 2,
      "byteOffset": 35580,
      "componentType": 5126,
      "count": 269,
      "max": [
        1.0,
        0.9968830943107605,
        1.0
      ],
      "min": [
        -1.0,
        -1.0,
        -0.9999999403953552
      ],
      "type": "VEC3"
    },
    {
      "bufferView": 1,
      "byteOffset": 10784,
      "componentType": 5126,
      "count": 269,
      "max": [
        1.0,
        0.997042179107666
      ],
      "min": [
        0.0917884036898613,
        0.0
      ],
      "type": "VEC2"
    },
    {
      "bufferView": 0,
      "byteOffset": 16980,
      "componentType": 5125,
      "count": 624,
      "type": "SCALAR"
    },
    {
      "bufferView": 2,
      "byteOffset": 38808,
      "componentType": 5126,
      "count": 371,
      "max": [
        0.1322339028120041,
        0.1387380063533783,
        0.1352594792842865
      ],
      "min": [
        -0.15467336773872375,
        -0.18295800685882568,
        -0.4602653384208679
      ],
      "type": "VEC3"
    },
    {
      "bufferView": 2,
      "byteOffset": 43260,
      "componentType": 5126,
      "count": 371,
      "max": [
        1.0,
        1.0,
        1.0
      ],
      "min": [
        -0.9991638660430908,
        -1.0,
        -1.0
      ],
      "type": "VEC3"
    },
    {
      "bufferView": 1,
      "byteOffset": 12936,
      "componentType": 5126,
      "count": 371,
      "max": [
        0.9878426790237427,
        0.9875689744949341
      ],
      "min": [
        0.0,
        0.0
      ],
      "type": "VEC2"
    },
    {
      "bufferView": 0,
      "byteOffset": 19476,
      "componentType": 5125,
      "count": 852,
      "type": "SCALAR"
    },
    {
      "bufferView": 2,
      "byteOffset": 47712,
      "componentType": 5126,
      "count": 283,
      "max": [
        0.1578950583934784,
        0.1687968671321869,
        0.09011425077915192
      ],
      "min": [
        -0.13914576172828674,
        -0.08639790117740631,
        -0.2946335971355438
      ],
      "type": "VEC3"
    },
    {
      "bufferView": 2,
      "byteOffset": 51108,
      "componentType": 5126,
      "count": 283,
      "max": [
        0.9885579347610474,
        0.9988436698913574,
        0.9629795551300049
      ],
      "min": [
        -0.9885899424552917,
        -0.9992984533309937,
        -0.974178671836853
      ],
      "type": "VEC3"
    },
    {
      "bufferView": 1,
      "byteOffset": 15904,
      "componentType": 5126,
      "count": 283,
      "max": [
        1.0,
        0.9931668043136597
      ],
      "min": [
        0.0,
        0.0
      ],
      "type": "VEC2"
    },
    {
      "bufferView": 0,
      "byteOffset": 22884,
      "componentType": 5125,
      "count": 912,
      "type": "SCALAR"
    },
    {
      "bufferView": 2,
      "byteOffset": 54504,
      "componentType": 5126,
      "count": 270,
      "max": [
        0.08050209283828735,
        0.09606736153364182,
        0.2172437161207199
      ],
      "min": [
        -0.0884055495262146,
        -0.0702064037322998,
        -0.12192288041114807
      ],
      "type": "VEC3"
    },
    {
      "bufferView": 2,
      "byteOffset": 57744,
      "componentType": 5126,
      "count": 270,
      "max": [
        1.0,
        0.9968830943107605,
        1.0
      ],
      "min": [
        -1.0,
        -1.0,
        -0.9999999403953552
      ],
      "type": "VEC3"
    },
    {
      "bufferView": 1,
      "byteOffset": 18168,
      "componentType": 5126,
      "count": 270,
      "max": [
        0.9669837951660156,
        0.9713283181190491
      ],
      "min": [
        0.0,
        0.0
      ],
      "type": "VEC2"
    },
    {
      "bufferView": 0,
      "byteOffset": 26532,
      "componentType": 5125,
      "count": 624,
      "type": "SCALAR"
    },
    {
      "bufferView": 2,
      "byteOffset": 60984,
      "componentType": 5126,
      "count": 371,
      "max": [
        0.15467378497123718,
        0.1387380063533783,
        0.1352594792842865
      ],
      "min": [
        -0.13223348557949066,
        -0.18295800685882568,
        -0.4602653384208679
      ],
      "type": "VEC3"
    },
    {
      "bufferView": 2,
      "byteOffset": 65436,
      "componentType": 5126,
      "count": 371,
      "max": [
        0.9991638660430908,
        1.0,
        1.0
      ],
      "min": [
        -1.0,
        -1.0,
        -1.0
      ],
      "type": "VEC3"
    },
    {
      "bufferView": 1,
      "byteOffset": 20328,
      "componentType": 5126,
      "count": 371,
      "max": [
        0.9878426790237427,
        0.9875689744949341
      ],
      "min": [
        0.0,
        0.0
      ],
      "type": "VEC2"
    },
    {
      "bufferView": 0,
      "byteOffset": 29028,
      "componentType": 5125,
      "count": 852,
      "type": "SCALAR"
    }
  ],
  "asset": {
    "extras": {
      "author": "Royd45 (https://sketchfab.com/Royd45)",
      "license": "SKETCHFAB Standard (https://sketchfab.com/licenses)",
      "source": "https://sketchfab.com/3d-models/lego-character-free-low-poly-cd4f477847e247b5ae1733076cad8bb9",
      "title": "Lego Character FREE Low Poly"
    },
    "generator": "Sketchfab-16.51.0",
    "version": "2.0"
  },
  "bufferViews": [
    {
      "buffer": 0,
      "byteLength": 32436,
      "name": "floatBufferViews",
      "target": 34963
    },
    {
      "buffer": 0,
      "byteLength": 23296,
      "byteOffset": 32436,
      "byteStride": 8,
      "name": "floatBufferViews",
      "target": 34962
    },
    {
      "buffer": 0,
      "byteLength": 69888,
      "byteOffset": 55732,
      "byteStride": 12,
      "name": "floatBufferViews",
      "target": 34962
    }
  ],
  "buffers": [
    {
      "byteLength": 125620,
      "uri": "scene.bin"
    }
  ],
  "extensionsUsed": [
    "KHR_materials_specular"
  ],
  "images": [
    {
      "uri": "textures/Body_baseColor.png"
    },
    {
      "uri": "textures/Head_baseColor.png"
    }
  ],
  "materials": [
    {
      "doubleSided": true,
      "name": "LegsTarget",
      "pbrMetallicRoughness": {
        "baseColorFactor": [
          0.04655947223157948,
          0.024456791063748585,
          0.009927078520293963,
          1.0
        ],
        "metallicFactor": 0.0,
        "roughnessFactor": 0.24571198693176977
      }
    },
    {
      "doubleSided": true,
      "name": "Body",
      "pbrMetallicRoughness": {
        "baseColorTexture": {
          "index": 0
        },
        "metallicFactor": 0.0,
        "roughnessFactor": 0.2700930136168035
      }
    },
    {
      "doubleSided": true,
      "extensions": {
        "KHR_materials_specular": {
          "specularColorFactor": [
            1.0,
            1.0,
            1.0
          ],
          "specularFactor": 0.43123940949153367
        }
      },
      "name": "Head",
      "pbrMetallicRoughness": {
        "baseColorTexture": {
          "index": 1
        },
        "metallicFactor": 0.0,
        "roughnessFactor": 0.23961673026051133
      }
    },
    {
      "doubleSided": true,
      "name": "Arms",
      "pbrMetallicRoughness": {
        "baseColorFactor": [
          0.11962991858669911,
          0.0422440828021009,
          0.018810052491300796,
          1.0
        ],
        "metallicFactor": 0.0,
        "roughnessFactor": 0.30056929697309553
      }
    },
    {
      "doubleSided": true,
      "name": "Hands",
      "pbrMetallicRoughness": {
        "baseColorFactor": [
          0.6358071275813759,
          0.4077213851268525,
          0.18190223018532087,
          1.0
        ],
        "metallicFactor": 0.0,
        "roughnessFactor": 0.28228352695932035
      }
    },
    {
      "doubleSided": true,
      "name": "Legs",
      "pbrMetallicRoughness": {
        "baseColorFactor": [
          0.0466650863368801,
          0.02415763244850478,
          0.009721217320237847,
          1.0
        ],
        "metallicFactor": 0.0,
        "roughnessFactor": 0.24571198693176977
      }
    }
  ],
  "meshes": [
    {
      "name": "LegTarget_LegsTarget_0",
      "primitives": [
        {
          "attributes": {
            "NORMAL": 1,
            "POSITION": 0,
            "TEXCOORD_0": 2
          },
          "indices": 3,
          "material": 0,
          "mode": 4
        }
      ]
    },
    {
      "name": "Body_Body_0",
      "primitives": [
        {
          "attributes": {
            "NORMAL": 5,
            "POSITION": 4,
            "TEXCOORD_0": 6
          },
          "indices": 7,
          "material": 1,
          "mode": 4
        }
      ]
    },
    {
      "name": "Head_Head_0",
      "primitives": [
        {
          "attributes": {
            "NORMAL": 9,
            "POSITION": 8,
            "TEXCOORD_0": 10
          },
          "indices": 11,
          "material": 2,
          "mode": 4
        }
      ]
    },
    {
      "name": "LeftArm_Arms_0",
      "primitives": [
        {
          "attributes": {
            "NORMAL": 13,
            "POSITION": 12,
            "TEXCOORD_0": 14
          },
          "indices": 15,
          "material": 3,
          "mode": 4
        }
      ]
    },
    {
      "name": "LeftHand_Hands_0",
      "primitives": [
        {
          "attributes": {
            "NORMAL": 17,
            "POSITION": 16,
            "TEXCOORD_0": 18
          },
          "indices": 19,
          "material": 4,
          "mode": 4
        }
      ]
    },
    {
      "name": "RightLeg_Legs_0",
      "primitives": [
        {
          "attributes": {
            "NORMAL": 21,
            "POSITION": 20,
            "TEXCOORD_0": 22
          },
          "indices": 23,
          "material": 5,
          "mode": 4
        }
      ]
    },
    {
      "name": "RightArm_Arms_0",
      "primitives": [
        {
          "attributes": {
            "NORMAL": 25,
            "POSITION": 24,
            "TEXCOORD_0": 26
          },
          "indices": 27,
          "material": 3,
          "mode": 4
        }
      ]
    },
    {
      "name": "RightHand_Hands_0",
      "primitives": [
        {
          "attributes": {
            "NORMAL": 29,
            "POSITION": 28,
            "TEXCOORD_0": 30
          },
          "indices": 31,
          "material": 4,
          "mode": 4
        }
      ]
    },
    {
      "name": "RightLeg.001_Legs_0",
      "primitives": [
        {
          "attributes": {
            "NORMAL": 33,
            "POSITION": 32,
            "TEXCOORD_0": 34
          },
          "indices": 35,
          "material": 5,
          "mode": 4
        }
      ]
    }
  ],
  "nodes": [
    {
      "children": [
        1
      ],
      "matrix": [
        1.0,
        0.0,
        0.0,
        0.0,
        0.0,
        2.220446049250313e-16,
        -1.0,
        0.0,
        0.0,
        1.0,
        2.220446049250313e-16,
        0.0,
        0.0,
        0.0,
        0.0,
        1.0
      ],
      "name": "Sketchfab_model"
    },
    {
      "children": [
        2
      ],
      "matrix": [
        0.009999999776482582,
        0.0,
        0.0,
        0.0,
        0.0,
        0.0,
        0.009999999776482582,
        0.0,
        0.0,
        -0.009999999776482582,
        0.0,
        0.0,
        0.0,
        0.0,
        0.0,
        1.0
      ],
      "name": "77138eb387c64b68ad792e4e9e898269.fbx"
    },
    {
      "children": [
        3,
        5,
        7,
        9,
        11,
        13,
        15,
        17,
        19
      ],
      "name": "RootNode"
    },
    {
      "children": [
        4
      ],
      "matrix": [
        2.4562902450561523,
        0.0,
        0.0,
        0.0,
        0.0,
        -4.001804755080764e-07,
        -2.45629024505612,
        0.0,
        0.0,
        2.45629024505612,
        -4.001804755080764e-07,
        0.0,
        0.0,
        1.130548357963562,
        5.4506795095221605e-06,
        1.0
      ],
      "name": "LegTarget"
    },
    {
      "mesh": 0,
      "name": "LegTarget_LegsTarget_0"
    },
    {
      "children": [
        6
      ],
      "matrix": [
        2.4562902450561523,
        0.0,
        0.0,
        0.0,
        0.0,
        -4.001804755080764e-07,
        -2.45629024505612,
        0.0,
        0.0,
        2.45629024505612,
        -4.001804755080764e-07,
        0.0,
        5.019720639154457e-09,
        2.2889459133148193,
        0.0031669551972299814,
        1.0
      ],
      "name": "Body"
    },
    {
      "mesh": 1,
      "name": "Body_Body_0"
    },
    {
      "children": [
        8
      ],
      "matrix": [
        2.4562902450561523,
        0.0,
        0.0,
        0.0,
        0.0,
        -4.001804755080764e-07,
        -2.45629024505612,
        0.0,
        0.0,
        2.45629024505612,
        -4.001804755080764e-07,
        0.0,
        5.299873961917001e-08,
        3.3905279636383057,
        5.523086201719707e-06,
        1.0
      ],
      "name": "Head"
    },
    {
      "mesh": 2,
      "name": "Head_Head_0"
    },
    {
      "children": [
        10
      ],
      "matrix": [
        2.824772596359253,
        0.0,
        0.0,
        0.0,
        0.0,
        -0.9629274198268207,
        -2.6555813586189467,
        0.0,
        0.0,
        2.6555813586189467,
        -0.9629274198268207,
        0.0,
        0.7368870973587036,
        2.4838664531707764,
        5.4506795095221605e-06,
        1.0
      ],
      "name": "LeftArm"
    },
    {
      "mesh": 3,
      "name": "LeftArm_Arms_0"
    },
    {
      "children": [
        12
      ],
      "matrix": [
        2.824772596359253,
        0.0,
        0.0,
        0.0,
        0.0,
        -0.9629274198268207,
        -2.6555813586189467,
        0.0,
        0.0,
        2.6555813586189467,
        -0.9629274198268207,
        0.0,
        0.9671348929405212,
        1.561133623123169,
        0.25795799493789673,
        1.0
      ],
      "name": "LeftHand"
    },
    {
      "mesh": 4,
      "name": "LeftHand_Hands_0"
    },
    {
      "children": [
        14
      ],
      "matrix": [
        2.4562902450561523,
        0.0,
        0.0,
        0.0,
        -0.0,
        -4.001804755080764e-07,
        -2.45629024505612,
        0.0,
        0.0,
        2.45629024505612,
        -4.001804755080764e-07,
        0.0,
        -0.3684435486793518,
        1.130548357963562,
        5.4506795095221605e-06,
        1.0
      ],
      "name": "RightLeg"
    },
    {
      "mesh": 5,
      "name": "RightLeg_Legs_0"
    },
    {
      "children": [
        16
      ],
      "matrix": [
        2.824772596359253,
        0.0,
        0.0,
        0.0,
        -0.0,
        -0.9629274198268207,
        -2.6555813586189467,
        0.0,
        0.0,
        2.6555813586189467,
        -0.9629274198268207,
        0.0,
        -0.7368870973587036,
        2.483865737915039,
        5.550495643547038e-06,
        1.0
      ],
      "name": "RightArm"
    },
    {
      "mesh": 6,
      "name": "RightArm_Arms_0"
    },
    {
      "children": [
        18
      ],
      "matrix": [
        2.824772596359253,
        0.0,
        0.0,
        0.0,
        -0.0,
        -0.9629274198268207,
        -2.6555813586189467,
        0.0,
        0.0,
        2.6555813586189467,
        -0.9629274198268207,
        0.0,
        -0.9671342372894287,
        1.561133623123169,
        0.25795799493789673,
        1.0
      ],
      "name": "RightHand"
    },
    {
      "mesh": 7,
      "name": "RightHand_Hands_0"
    },
    {
      "children": [
        20
      ],
      "matrix": [
        2.4562902450561523,
        0.0,
        0.0,
        0.0,
        0.0,
        -4.001804755080764e-07,
        -2.45629024505612,
        0.0,
        0.0,
        2.45629024505612,
        -4.001804755080764e-07,
        0.0,
        0.3684435486793518,
        1.130548357963562,
        5.4506795095221605e-06,
        1.0
      ],
      "name": "RightLeg.001"
    },
    {
      "mesh": 8,
      "name": "RightLeg.001_Legs_0"
    }
  ],
  "samplers": [
    {
      "magFilter": 9729,
      "minFilter": 9987,
      "wrapS": 10497,
      "wrapT": 10497
    }
  ],
  "scene": 0,
  "scenes": [
    {
      "name": "Sketchfab_Scene",
      "nodes": [
        0
      ]
    }
  ],
  "textures": [
    {
      "sampler": 0,
      "source": 0
    },
    {
      "sampler": 0,
      "source": 1
    }
  ]
}
